<svg xmlns="http://www.w3.org/2000/svg" viewBox="0 0 1024 1024" role="img" aria-labelledby="title description">
  <title id="title">WAITS clock and dumbbells logo</title>
  <desc id="description">Twelve hour markers surround a crossed pair of dumbbells.</desc>
  <rect width="1024" height="1024" fill="#BAFF29"/>
  <g fill="#111111">
    <rect x="488" y="100" width="48" height="112" rx="24"/>
    <rect x="488" y="812" width="48" height="112" rx="24"/>
    <rect x="812" y="488" width="112" height="48" rx="24"/>
    <rect x="100" y="488" width="112" height="48" rx="24"/>
    <rect x="686" y="153" width="44" height="94" rx="22" transform="rotate(30 708 200)"/>
    <rect x="294" y="777" width="44" height="94" rx="22" transform="rotate(30 316 824)"/>
    <rect x="777" y="294" width="94" height="44" rx="22" transform="rotate(30 824 316)"/>
    <rect x="153" y="686" width="94" height="44" rx="22" transform="rotate(30 200 708)"/>
    <rect x="294" y="153" width="44" height="94" rx="22" transform="rotate(-30 316 200)"/>
    <rect x="686" y="777" width="44" height="94" rx="22" transform="rotate(-30 708 824)"/>
    <rect x="153" y="294" width="94" height="44" rx="22" transform="rotate(-30 200 316)"/>
    <rect x="777" y="686" width="94" height="44" rx="22" transform="rotate(-30 824 708)"/>
  </g>
  <g fill="none" stroke="#111111" stroke-linecap="round" stroke-linejoin="round"
     transform="translate(512 512) rotate(-45) translate(-512 -512)" stroke-width="32">
    <path d="M350 448h324"/>
    <path d="M374 360v176M430 390v116M594 390v116M650 360v176"/>
    <path d="M350 576h324"/>
    <path d="M374 488v176M430 518v116M594 518v116M650 488v176"/>
  </g>
</svg>
